# xmcd
#
# Track frame offsets:
#	150
#	12515
#	31595
#	44127
#	61523
#	86280
#	99177
#	112290
#	124907
#	138995
#	151892
#	172352
#	194142
#	211915
#	224732
#	240270
#	254205
#	264777
#
# Disc length: 3715 seconds
#
# Revision: 2
# Processed by: cddbd v1.5.2PL0 Copyright (c) Steve Scherf et al.
# Submitted via: audiograbber 1.83.01
#
DISCID=070e8112
DTITLE=Various Artist - Legends Of Gospel and Blues
DYEAR=1900
DGENRE=
TTITLE0=Mahalia Jackson - He's Got The Whole World In His Hands
TTITLE1=Louis Armstrong - Black And Blue
TTITLE2=Golden Gate Quartet - When The Saints Go Marchin'In
TTITLE3=John Lee Hooker - Blues Before Sunrise
TTITLE4=Mahalia Jackson - I Will Move On Up A Little Higher
TTITLE5=Katie Webster - Precious Lord
TTITLE6=Golden Gate Quartet - Nobody Knows The Trouble I've Seen
TTITLE7=Sarah Vaughan - Prelude To A Kiss
TTITLE8=Mahalia Jackson - Walk Over God's Heaven
TTITLE9=Dionne Warwick - Trains And Boats And Planes
TTITLE10=Golden Gate Quartet - Deep River
TTITLE11=B. B. King - Gablers Blues
TTITLE12=Mahalia Jackson - A City Called Heaven
TTITLE13=Mahalia Jackson - Every Day I Have The Blues
TTITLE14=Mahalia Jackson - It Don't Cost Very Much
TTITLE15=Muddy Waters - I'm Ready
TTITLE16=Mahalia Jackson - Jesus
TTITLE17=Louis Armstrong - A Kiss To Build A Dream
EXTD=
EXTT0=
EXTT1=
EXTT2=
EXTT3=
EXTT4=
EXTT5=
EXTT6=
EXTT7=
EXTT8=
EXTT9=
EXTT10=
EXTT11=
EXTT12=
EXTT13=
EXTT14=
EXTT15=
EXTT16=
EXTT17=
PLAYORDER=
